<svg xmlns="http://www.w3.org/2000/svg" id="Layer_1" viewBox="0 0 512 512"><defs><style> .st0 { fill: #143d66; } .st1 { fill: #009edf; } .st2 { fill: #006b9e; } .st3 { fill: #fff; opacity: 0; } </style></defs><g><path id="C_Bottom" class="st0" d="M203.19,346.16l-90.16,90.16c99.58,99.58,261.04,99.58,360.62,0l-90.16-90.16c-49.71,49.71-130.6,49.71-180.31,0Z"></path><path id="C_Middle" class="st2" d="M203.19,165.84l-90.16-90.16c-99.58,99.58-99.58,261.04,0,360.62l90.16-90.16c-49.71-49.71-49.71-130.6,0-180.31Z"></path><path id="C_Top" class="st1" d="M383.5,165.84l90.16-90.16c-99.58-99.58-261.04-99.58-360.62,0l90.16,90.16c49.71-49.71,130.6-49.71,180.31,0Z"></path></g><rect class="st3" width="1" height="1"></rect><rect class="st3" y="511" width="1" height="1"></rect><rect class="st3" x="511" y="511" width="1" height="1"></rect><rect class="st3" x="511" width="1" height="1"></rect></svg>